<svg width="71" height="38" viewBox="0 0 71 38" fill="none" xmlns="http://www.w3.org/2000/svg">
<path d="M2.37483 9.25329V14.5454H0.592222V1.02729H5.57796C7.05727 1.02729 8.21473 1.40486 9.05033 2.15999C9.89212 2.91513 10.313 3.91475 10.313 5.15886C10.313 6.47106 9.9014 7.48306 9.07818 8.19487C8.26115 8.90048 7.08822 9.25329 5.55939 9.25329H2.37483ZM2.37483 7.79564H5.57796C6.53116 7.79564 7.26153 7.57281 7.76908 7.12716C8.27663 6.67532 8.5304 6.02541 8.5304 5.17743C8.5304 4.37278 8.27663 3.72906 7.76908 3.24627C7.26153 2.76348 6.5652 2.5128 5.68008 2.49423H2.37483V7.79564ZM16.3572 14.7311C14.9955 14.7311 13.8875 14.2854 13.0333 13.3941C12.1792 12.4966 11.7521 11.299 11.7521 9.80107V9.4854C11.7521 8.48887 11.9409 7.60066 12.3184 6.82077C12.7022 6.03469 13.2345 5.42192 13.9154 4.98246C14.6024 4.53681 15.3452 4.31398 16.1436 4.31398C17.4496 4.31398 18.4647 4.74416 19.1889 5.60451C19.9131 6.46487 20.2752 7.6966 20.2752 9.29971V10.0146H13.4697C13.4945 11.005 13.7823 11.8065 14.3332 12.4193C14.8902 13.0259 15.5958 13.3292 16.45 13.3292C17.0566 13.3292 17.5703 13.2054 17.9912 12.9578C18.4121 12.7102 18.7804 12.3821 19.0961 11.9736L20.1452 12.7907C19.3034 14.0843 18.0407 14.7311 16.3572 14.7311ZM16.1436 5.72521C15.4504 5.72521 14.8686 5.97899 14.3982 6.48653C13.9277 6.98789 13.6368 7.69351 13.5254 8.60338H18.5576V8.4734C18.5081 7.60066 18.2729 6.926 17.852 6.4494C17.4311 5.96661 16.8616 5.72521 16.1436 5.72521ZM24.6017 2.06715V4.49967H26.4772V5.82734H24.6017V12.0572C24.6017 12.4595 24.6853 12.7628 24.8524 12.9671C25.0195 13.1651 25.3043 13.2642 25.7066 13.2642C25.9046 13.2642 26.177 13.227 26.5236 13.1527V14.5454C26.0718 14.6692 25.6323 14.7311 25.2052 14.7311C24.4377 14.7311 23.859 14.499 23.469 14.0348C23.0791 13.5705 22.8841 12.9114 22.8841 12.0572V5.82734H21.0551V4.49967H22.8841V2.06715H24.6017ZM32.7442 8.51982C31.2153 8.08036 30.1012 7.54186 29.4018 6.90433C28.7085 6.26061 28.3619 5.46834 28.3619 4.52752C28.3619 3.46291 28.7859 2.58398 29.6339 1.89075C30.4881 1.19132 31.596 0.841606 32.9577 0.841606C33.8862 0.841606 34.7125 1.02111 35.4367 1.3801C36.167 1.7391 36.7303 2.23427 37.1264 2.86561C37.5287 3.49695 37.7299 4.18709 37.7299 4.93604H35.938C35.938 4.11901 35.678 3.47838 35.1581 3.01416C34.6382 2.54375 33.9047 2.30854 32.9577 2.30854C32.0788 2.30854 31.3917 2.50352 30.8966 2.89346C30.4076 3.27722 30.1631 3.81262 30.1631 4.49967C30.1631 5.05054 30.3952 5.51786 30.8594 5.90162C31.3298 6.27918 32.1252 6.6258 33.2455 6.94147C34.372 7.25714 35.251 7.60685 35.8823 7.99061C36.5198 8.36818 36.9902 8.81073 37.2935 9.31828C37.603 9.82583 37.7578 10.4231 37.7578 11.1102C37.7578 12.2057 37.3307 13.0847 36.4765 13.747C35.6223 14.403 34.4804 14.7311 33.0506 14.7311C32.1221 14.7311 31.2556 14.5547 30.4509 14.2019C29.6463 13.8429 29.0242 13.3539 28.5847 12.7349C28.1515 12.116 27.9348 11.4135 27.9348 10.6274H29.7267C29.7267 11.4444 30.0269 12.0912 30.6273 12.5678C31.2339 13.0382 32.0416 13.2734 33.0506 13.2734C33.9914 13.2734 34.7125 13.0816 35.2138 12.6978C35.7152 12.3141 35.9659 11.791 35.9659 11.1287C35.9659 10.4665 35.7338 9.95581 35.2695 9.59681C34.8053 9.23163 33.9635 8.87263 32.7442 8.51982ZM42.1121 2.06715V4.49967H43.9876V5.82734H42.1121V12.0572C42.1121 12.4595 42.1957 12.7628 42.3628 12.9671C42.5299 13.1651 42.8147 13.2642 43.217 13.2642C43.4151 13.2642 43.6874 13.227 44.034 13.1527V14.5454C43.5822 14.6692 43.1427 14.7311 42.7156 14.7311C41.9481 14.7311 41.3694 14.499 40.9795 14.0348C40.5895 13.5705 40.3945 12.9114 40.3945 12.0572V5.82734H38.5655V4.49967H40.3945V2.06715H42.1121ZM45.3617 9.42969C45.3617 8.44555 45.5536 7.56043 45.9373 6.77435C46.3273 5.98827 46.8658 5.38169 47.5528 4.9546C48.2461 4.52752 49.0352 4.31398 49.9203 4.31398C51.2883 4.31398 52.3931 4.78748 53.2349 5.7345C54.0829 6.68151 54.5069 7.94109 54.5069 9.51325V9.63395C54.5069 10.6119 54.3181 11.4908 53.9405 12.2707C53.5691 13.0444 53.0337 13.6479 52.3343 14.0812C51.6411 14.5145 50.8426 14.7311 49.9389 14.7311C48.5772 14.7311 47.4724 14.2576 46.6244 13.3106C45.7826 12.3636 45.3617 11.1102 45.3617 9.55039V9.42969ZM47.0886 9.63395C47.0886 10.7481 47.3455 11.6425 47.8592 12.3171C48.3791 12.9918 49.0724 13.3292 49.9389 13.3292C50.8117 13.3292 51.5049 12.9887 52.0186 12.3079C52.5324 11.6208 52.7892 10.6614 52.7892 9.42969C52.7892 8.32794 52.5262 7.43664 52.0001 6.75578C51.4801 6.06873 50.7869 5.72521 49.9203 5.72521C49.0724 5.72521 48.3884 6.06255 47.8685 6.73721C47.3486 7.41188 47.0886 8.37746 47.0886 9.63395ZM61.5166 6.04088C61.2566 5.99755 60.975 5.97589 60.6717 5.97589C59.5452 5.97589 58.7808 6.45559 58.3785 7.41498V14.5454H56.6608V4.49967H58.332L58.3599 5.66022C58.9231 4.76273 59.7216 4.31398 60.7553 4.31398C61.0895 4.31398 61.3433 4.35731 61.5166 4.44396V6.04088ZM66.558 12.0293L68.8977 4.49967H70.736L66.6973 16.0959C66.0721 17.7671 65.0787 18.6027 63.717 18.6027L63.392 18.5748L62.7514 18.4542V17.0615L63.2156 17.0986C63.7975 17.0986 64.2493 16.981 64.5712 16.7458C64.8992 16.5106 65.1685 16.0804 65.3789 15.4553L65.7596 14.434L62.1758 4.49967H64.0512L66.558 12.0293ZM10.2666 32.4297C10.2666 31.4455 10.4585 30.5604 10.8422 29.7744C11.2322 28.9883 11.7707 28.3817 12.4577 27.9546C13.1509 27.5275 13.9401 27.314 14.8252 27.314C16.1931 27.314 17.298 27.7875 18.1398 28.7345C18.9878 29.6815 19.4117 30.9411 19.4117 32.5133V32.634C19.4117 33.6119 19.223 34.4908 18.8454 35.2707C18.474 36.0444 17.9386 36.6479 17.2392 37.0812C16.546 37.5145 15.7475 37.7311 14.8438 37.7311C13.4821 37.7311 12.3772 37.2576 11.5293 36.3106C10.6875 35.3636 10.2666 34.1102 10.2666 32.5504V32.4297ZM11.9935 32.634C11.9935 33.7481 12.2504 34.6425 12.7641 35.3171C13.284 35.9918 13.9773 36.3292 14.8438 36.3292C15.7165 36.3292 16.4098 35.9887 16.9235 35.3079C17.4373 34.6208 17.6941 33.6614 17.6941 32.4297C17.6941 31.3279 17.4311 30.4366 16.9049 29.7558C16.385 29.0687 15.6918 28.7252 14.8252 28.7252C13.9773 28.7252 13.2933 29.0625 12.7734 29.7372C12.2535 30.4119 11.9935 31.3775 11.9935 32.634ZM23.1905 27.4997L23.2462 28.7623C24.0137 27.7968 25.0164 27.314 26.2544 27.314C28.3774 27.314 29.4482 28.5117 29.4668 30.907V37.5454H27.7491V30.8978C27.743 30.1736 27.5758 29.6382 27.2478 29.2916C26.9259 28.9449 26.4215 28.7716 25.7344 28.7716C25.1774 28.7716 24.6884 28.9202 24.2675 29.2173C23.8466 29.5144 23.5185 29.9043 23.2833 30.3871V37.5454H21.5657V27.4997H23.1905ZM33.9233 37.5454H32.2057V23.2845H33.9233V37.5454ZM38.5469 37.5454H36.8293V27.4997H38.5469V37.5454ZM36.69 24.835C36.69 24.5565 36.7736 24.3213 36.9407 24.1294C37.114 23.9375 37.3678 23.8416 37.702 23.8416C38.0363 23.8416 38.2901 23.9375 38.4634 24.1294C38.6367 24.3213 38.7233 24.5565 38.7233 24.835C38.7233 25.1136 38.6367 25.3457 38.4634 25.5314C38.2901 25.7171 38.0363 25.8099 37.702 25.8099C37.3678 25.8099 37.114 25.7171 36.9407 25.5314C36.7736 25.3457 36.69 25.1136 36.69 24.835ZM42.9292 27.4997L42.9849 28.7623C43.7524 27.7968 44.7551 27.314 45.993 27.314C48.1161 27.314 49.1869 28.5117 49.2054 30.907V37.5454H47.4878V30.8978C47.4816 30.1736 47.3145 29.6382 46.9865 29.2916C46.6646 28.9449 46.1602 28.7716 45.4731 28.7716C44.916 28.7716 44.4271 28.9202 44.0062 29.2173C43.5853 29.5144 43.2572 29.9043 43.022 30.3871V37.5454H41.3044V27.4997H42.9292ZM55.9645 37.7311C54.6028 37.7311 53.4948 37.2854 52.6407 36.3941C51.7865 35.4966 51.3594 34.299 51.3594 32.8011V32.4854C51.3594 31.4889 51.5482 30.6007 51.9258 29.8208C52.3095 29.0347 52.8418 28.4219 53.5227 27.9825C54.2097 27.5368 54.9525 27.314 55.751 27.314C57.057 27.314 58.0721 27.7442 58.7963 28.6045C59.5204 29.4649 59.8825 30.6966 59.8825 32.2997V33.0146H53.077C53.1018 34.005 53.3896 34.8065 53.9405 35.4193C54.4976 36.0259 55.2032 36.3292 56.0573 36.3292C56.6639 36.3292 57.1777 36.2054 57.5986 35.9578C58.0195 35.7102 58.3877 35.3821 58.7034 34.9736L59.7525 35.7907C58.9108 37.0843 57.6481 37.7311 55.9645 37.7311ZM55.751 28.7252C55.0577 28.7252 54.4759 28.979 54.0055 29.4865C53.5351 29.9879 53.2442 30.6935 53.1328 31.6034H58.1649V31.4734C58.1154 30.6007 57.8802 29.926 57.4593 29.4494C57.0384 28.9666 56.469 28.7252 55.751 28.7252Z" fill="white"/>
<path d="M2.37483 9.25329V8.06489H1.18642V9.25329H2.37483ZM2.37483 14.5454V15.7338H3.56324V14.5454H2.37483ZM0.592222 14.5454H-0.596184V15.7338H0.592222V14.5454ZM0.592222 1.02729V-0.161111H-0.596184V1.02729H0.592222ZM9.05033 2.15999L8.25352 3.04171L8.25677 3.04462L9.05033 2.15999ZM9.07818 8.19487L9.85495 9.09428L9.85548 9.09382L9.07818 8.19487ZM2.37483 7.79564H1.18642V8.98404H2.37483V7.79564ZM7.76908 7.12716L8.55321 8.0202L8.55928 8.01479L7.76908 7.12716ZM5.68008 2.49423L5.70501 1.30609L5.69255 1.30583H5.68008V2.49423ZM2.37483 2.49423V1.30583H1.18642V2.49423H2.37483ZM1.18642 9.25329V14.5454H3.56324V9.25329H1.18642ZM2.37483 13.357H0.592222V15.7338H2.37483V13.357ZM1.78063 14.5454V1.02729H-0.596184V14.5454H1.78063ZM0.592222 2.2157H5.57796V-0.161111H0.592222V2.2157ZM5.57796 2.2157C6.85727 2.2157 7.69754 2.53925 8.25352 3.0417L9.84713 1.27828C8.73193 0.270468 7.25727 -0.161111 5.57796 -0.161111V2.2157ZM8.25677 3.04462C8.82044 3.55027 9.1246 4.21451 9.1246 5.15886H11.5014C11.5014 3.61498 10.9638 2.27998 9.84389 1.27537L8.25677 3.04462ZM9.1246 5.15886C9.1246 6.20365 8.80948 6.85615 8.30089 7.29591L9.85548 9.09382C10.9933 8.10997 11.5014 6.73847 11.5014 5.15886H9.1246ZM8.30142 7.29545C7.77503 7.75006 6.92043 8.06489 5.55939 8.06489V10.4417C7.25601 10.4417 8.74728 10.0509 9.85495 9.09428L8.30142 7.29545ZM5.55939 8.06489H2.37483V10.4417H5.55939V8.06489ZM2.37483 8.98404H5.57796V6.60723H2.37483V8.98404ZM5.57796 8.98404C6.7019 8.98404 7.75417 8.72175 8.55319 8.02017L6.98497 6.23414C6.76889 6.42387 6.36041 6.60723 5.57796 6.60723V8.98404ZM8.55928 8.01479C9.3807 7.28353 9.71881 6.27401 9.71881 5.17743H7.342C7.342 5.7768 7.17256 6.06711 6.97887 6.23953L8.55928 8.01479ZM9.71881 5.17743C9.71881 4.10021 9.36731 3.12636 8.58814 2.3852L6.95001 4.10734C7.18594 4.33176 7.342 4.64535 7.342 5.17743H9.71881ZM8.58814 2.3852C7.81359 1.64843 6.80523 1.32917 5.70501 1.30609L5.65516 3.68238C6.32516 3.69643 6.70947 3.87853 6.95001 4.10734L8.58814 2.3852ZM5.68008 1.30583H2.37483V3.68264H5.68008V1.30583ZM1.18642 2.49423V7.79564H3.56324V2.49423H1.18642ZM13.0333 13.3941L12.1725 14.2134L12.1753 14.2164L13.0333 13.3941ZM12.3184 6.82077L11.2505 6.29941L11.2488 6.30293L12.3184 6.82077ZM13.9154 4.98246L14.5598 5.98094L14.5621 5.97948L13.9154 4.98246ZM19.1889 5.60451L18.2797 6.36981L19.1889 5.60451ZM20.2752 10.0146V11.203H21.4636V10.0146H20.2752ZM13.4697 10.0146V8.82621H12.2512L12.2817 10.0443L13.4697 10.0146ZM14.3332 12.4193L13.4493 13.2138L13.4579 13.2231L14.3332 12.4193ZM19.0961 11.9736L19.8263 11.036L18.8851 10.3031L18.1557 11.247L19.0961 11.9736ZM20.1452 12.7907L21.1413 13.4388L21.7367 12.5238L20.8754 11.853L20.1452 12.7907ZM14.3982 6.48653L15.2648 7.2997L15.2698 7.29437L14.3982 6.48653ZM13.5254 8.60338L12.3458 8.45894L12.1826 9.79179H13.5254V8.60338ZM18.5576 8.60338V9.79179H19.746V8.60338H18.5576ZM18.5576 8.4734H19.746V8.43971L19.7441 8.40608L18.5576 8.4734ZM17.852 6.4494L16.9562 7.23036L16.9612 7.23605L17.852 6.4494ZM16.3572 13.5427C15.2825 13.5427 14.4971 13.2039 13.8914 12.5719L12.1753 14.2164C13.2779 15.367 14.7084 15.9195 16.3572 15.9195V13.5427ZM13.8942 12.5748C13.2927 11.9428 12.9405 11.0615 12.9405 9.80107H10.5637C10.5637 11.5364 11.0657 13.0505 12.1725 14.2134L13.8942 12.5748ZM12.9405 9.80107V9.4854H10.5637V9.80107H12.9405ZM12.9405 9.4854C12.9405 8.64131 13.0996 7.93446 13.3881 7.33862L11.2488 6.30293C10.7821 7.26686 10.5637 8.33644 10.5637 9.4854H12.9405ZM13.3864 7.34213C13.6829 6.73468 14.0754 6.29361 14.5598 5.98094L13.2709 3.98398C12.3936 4.55023 11.7215 5.33471 11.2505 6.29942L13.3864 7.34213ZM14.5621 5.97948C15.0618 5.65535 15.5808 5.50239 16.1436 5.50239V3.12557C15.1095 3.12557 14.143 3.41826 13.2686 3.98543L14.5621 5.97948ZM16.1436 5.50239C17.1619 5.50239 17.819 5.8224 18.2797 6.36981L20.0981 4.83922C19.1105 3.66591 17.7373 3.12557 16.1436 3.12557V5.50239ZM18.2797 6.36981C18.7603 6.94072 19.0868 7.85945 19.0868 9.29971H21.4636C21.4636 7.53376 21.0659 5.98902 20.0981 4.83922L18.2797 6.36981ZM19.0868 9.29971V10.0146H21.4636V9.29971H19.0868ZM20.2752 8.82621H13.4697V11.203H20.2752V8.82621ZM12.2817 10.0443C12.312 11.2579 12.6727 12.3499 13.4494 13.2138L15.2169 11.6248C14.8919 11.2632 14.6769 10.7521 14.6577 9.98491L12.2817 10.0443ZM13.4579 13.2231C14.2493 14.0849 15.2771 14.5176 16.45 14.5176V12.1407C15.9146 12.1407 15.5312 11.9668 15.2085 11.6154L13.4579 13.2231ZM16.45 14.5176C17.2176 14.5176 17.9509 14.3603 18.5938 13.9821L17.3887 11.9334C17.1898 12.0504 16.8956 12.1407 16.45 12.1407V14.5176ZM18.5938 13.9821C19.1526 13.6534 19.6335 13.2217 20.0364 12.7003L18.1557 11.247C17.9273 11.5426 17.6717 11.767 17.3887 11.9334L18.5938 13.9821ZM18.3659 12.9112L19.415 13.7283L20.8754 11.853L19.8263 11.036L18.3659 12.9112ZM19.1491 12.1425C18.5493 13.0643 17.6821 13.5427 16.3572 13.5427V15.9195C18.3994 15.9195 20.0576 15.1042 21.1413 13.4388L19.1491 12.1425ZM16.1436 4.53681C15.1202 4.53681 14.2223 4.92801 13.5265 5.6787L15.2698 7.29437C15.5148 7.02996 15.7806 6.91362 16.1436 6.91362V4.53681ZM13.5315 5.67338C12.839 6.41141 12.4778 7.38127 12.3458 8.45894L14.705 8.74782C14.7959 8.00575 15.0165 7.56437 15.2648 7.29969L13.5315 5.67338ZM13.5254 9.79179H18.5576V7.41498H13.5254V9.79179ZM19.746 8.60338V8.4734H17.3692V8.60338H19.746ZM19.7441 8.40608C19.685 7.36574 19.3959 6.40234 18.7427 5.66274L16.9612 7.23605C17.1498 7.44965 17.3311 7.83559 17.3711 8.54072L19.7441 8.40608ZM18.7477 5.66845C18.0723 4.89372 17.1586 4.53681 16.1436 4.53681V6.91362C16.5646 6.91362 16.7898 7.0395 16.9562 7.23034L18.7477 5.66845ZM24.6017 2.06715H25.7901V0.878744H24.6017V2.06715ZM24.6017 4.49967H23.4133V5.68807H24.6017V4.49967ZM26.4772 4.49967H27.6656V3.31126H26.4772V4.49967ZM26.4772 5.82734V7.01575H27.6656V5.82734H26.4772ZM24.6017 5.82734V4.63893H23.4133V5.82734H24.6017ZM24.8524 12.9671L23.9326 13.7196L23.9383 13.7266L23.9441 13.7334L24.8524 12.9671ZM26.5236 13.1527H27.712V11.6827L26.2746 11.9907L26.5236 13.1527ZM26.5236 14.5454L26.8376 15.6916L27.712 15.452V14.5454H26.5236ZM22.8841 5.82734H24.0725V4.63893H22.8841V5.82734ZM21.0551 5.82734H19.8667V7.01575H21.0551V5.82734ZM21.0551 4.49967V3.31126H19.8667V4.49967H21.0551ZM22.8841 4.49967V5.68807H24.0725V4.49967H22.8841ZM22.8841 2.06715V0.878744H21.6957V2.06715H22.8841ZM23.4133 2.06715V4.49967H25.7901V2.06715H23.4133ZM24.6017 5.68807H26.4772V3.31126H24.6017V5.68807ZM25.2888 4.49967V5.82734H27.6656V4.49967H25.2888ZM26.4772 4.63893H24.6017V7.01575H26.4772V4.63893ZM23.4133 5.82734V12.0572H25.7901V5.82734H23.4133ZM23.4133 12.0572C23.4133 12.5965 23.5212 13.2167 23.9326 13.7196L25.7722 12.2145C25.8118 12.2629 25.8162 12.2928 25.8101 12.2707C25.8033 12.2459 25.7901 12.1798 25.7901 12.0572H23.4133ZM23.9441 13.7334C24.4376 14.3183 25.1478 14.4526 25.7066 14.4526V12.0758C25.654 12.0758 25.6182 12.0725 25.5964 12.0693C25.5747 12.0662 25.5714 12.0638 25.5817 12.0674C25.5926 12.0712 25.6186 12.0816 25.6527 12.1041C25.6877 12.127 25.7256 12.159 25.7607 12.2007L23.9441 13.7334ZM25.7066 14.4526C26.0294 14.4526 26.3975 14.3952 26.7726 14.3148L26.2746 11.9907C25.9565 12.0589 25.7799 12.0758 25.7066 12.0758V14.4526ZM25.3352 13.1527V14.5454H27.712V13.1527H25.3352ZM26.2096 13.3992C25.8503 13.4977 25.5165 13.5427 25.2052 13.5427V15.9195C25.7481 15.9195 26.2933 15.8407 26.8376 15.6916L26.2096 13.3992ZM25.2052 13.5427C24.6877 13.5427 24.4853 13.397 24.379 13.2704L22.5591 14.7991C23.2326 15.601 24.1877 15.9195 25.2052 15.9195V13.5427ZM24.379 13.2704C24.2302 13.0932 24.0725 12.7446 24.0725 12.0572H21.6957C21.6957 13.0781 21.928 14.0479 22.5591 14.7991L24.379 13.2704ZM24.0725 12.0572V5.82734H21.6957V12.0572H24.0725ZM22.8841 4.63893H21.0551V7.01575H22.8841V4.63893ZM22.2435 5.82734V4.49967H19.8667V5.82734H22.2435ZM21.0551 5.68807H22.8841V3.31126H21.0551V5.68807ZM24.0725 4.49967V2.06715H21.6957V4.49967H24.0725ZM22.8841 3.25556H24.6017V0.878744H22.8841V3.25556ZM32.7442 8.51982L33.0745 7.37824L33.0725 7.37767L32.7442 8.51982ZM29.4018 6.90433L28.5931 7.77523L28.6012 7.78263L29.4018 6.90433ZM29.6339 1.89075L30.3861 2.81082L30.3868 2.81022L29.6339 1.89075ZM35.4366 1.3801L34.9088 2.44487L34.9124 2.44664L35.4366 1.3801ZM37.1264 2.86561L36.1197 3.49725L36.1242 3.50427L37.1264 2.86561ZM37.7299 4.93604V6.12444H38.9183V4.93604H37.7299ZM35.938 4.93604H34.7496V6.12444H35.938V4.93604ZM35.1581 3.01416L34.3608 3.89543L34.3666 3.90064L35.1581 3.01416ZM30.8966 2.89346L31.6303 3.82834L31.6318 3.82712L30.8966 2.89346ZM30.8594 5.90162L30.1022 6.81757L30.1089 6.82304L30.1156 6.82841L30.8594 5.90162ZM33.2455 6.94147L32.9232 8.08534L32.9249 8.0858L33.2455 6.94147ZM35.8823 7.99061L35.265 9.0062L35.2767 9.01315L35.8823 7.99061ZM37.2935 9.31828L36.2733 9.92791L36.2789 9.93697L37.2935 9.31828ZM36.4765 13.747L37.2004 14.6894L37.2047 14.6861L36.4765 13.747ZM30.4509 14.2019L29.9667 15.2872L29.9737 15.2903L30.4509 14.2019ZM28.5847 12.7349L27.6111 13.4165L27.6157 13.4229L28.5847 12.7349ZM27.9348 10.6274V9.43898H26.7464V10.6274H27.9348ZM29.7267 10.6274H30.9151V9.43898H29.7267V10.6274ZM30.6273 12.5678L29.8884 13.4987L29.899 13.5069L30.6273 12.5678ZM35.2695 9.59681L34.5347 10.5309L34.5425 10.5369L35.2695 9.59681ZM33.0725 7.37767C31.6148 6.95866 30.7045 6.48376 30.2023 6.02604L28.6012 7.78263C29.4979 8.59996 30.8158 9.20205 32.4159 9.66198L33.0725 7.37767ZM30.2104 6.03348C29.7578 5.6132 29.5503 5.13581 29.5503 4.52752H27.1735C27.1735 5.80087 27.6593 6.90802 28.5931 7.77519L30.2104 6.03348ZM29.5503 4.52752C29.5503 3.83124 29.805 3.28587 30.3861 2.81082L28.8817 0.970671C27.7668 1.88209 27.1735 3.09458 27.1735 4.52752H29.5503ZM30.3868 2.81022C30.9826 2.32239 31.8044 2.03001 32.9577 2.03001V-0.346799C31.3876 -0.346799 29.9936 0.0602441 28.881 0.971267L30.3868 2.81022ZM32.9577 2.03001C33.7303 2.03001 34.3715 2.1785 34.9088 2.44486L35.9645 0.315346C35.0534 -0.136292 34.042 -0.346799 32.9577 -0.346799V2.03001ZM34.9124 2.44664C35.4636 2.71754 35.8516 3.06988 36.1198 3.49724L38.1331 2.23398C37.6089 1.39866 36.8705 0.760657 35.9609 0.31357L34.9124 2.44664ZM36.1242 3.50427C36.4049 3.94471 36.5415 4.41327 36.5415 4.93604H38.9183C38.9183 3.96092 38.6526 3.04919 38.1286 2.22695L36.1242 3.50427ZM37.7299 3.74763H35.938V6.12444H37.7299V3.74763ZM37.1264 4.93604C37.1264 3.84449 36.7662 2.85676 35.9496 2.12768L34.3666 3.90064C34.5899 4.1 34.7496 4.39352 34.7496 4.93604H37.1264ZM35.9554 2.13292C35.1501 1.40432 34.0947 1.12014 32.9577 1.12014V3.49695C33.7147 3.49695 34.1262 3.68318 34.3608 3.89541L35.9554 2.13292ZM32.9577 1.12014C31.9155 1.12014 30.9349 1.35058 30.1613 1.95981L31.6318 3.82712C31.8485 3.65646 32.2421 3.49695 32.9577 3.49695V1.12014ZM30.1629 1.95859C29.354 2.59343 28.9747 3.49164 28.9747 4.49967H31.3515C31.3515 4.1336 31.4612 3.96101 31.6303 3.82834L30.1629 1.95859ZM28.9747 4.49967C28.9747 5.44082 29.3939 6.23199 30.1022 6.81757L31.6166 4.98566C31.3965 4.80372 31.3515 4.66026 31.3515 4.49967H28.9747ZM30.1156 6.82841C30.7789 7.36083 31.7655 7.75912 32.9232 8.08534L33.5678 5.7976C32.4849 5.49248 31.8808 5.19753 31.6033 4.97482L30.1156 6.82841ZM32.9249 8.0858C34.0002 8.38714 34.7638 8.70147 35.265 9.00613L36.4996 6.97509C35.7381 6.51224 34.7438 6.12715 33.5662 5.79714L32.9249 8.0858ZM35.2767 9.01315C35.7862 9.31487 36.0943 9.62817 36.2734 9.92788L38.3137 8.70868C37.8862 7.9933 37.2535 7.42148 36.4879 6.96807L35.2767 9.01315ZM36.2789 9.93697C36.458 10.2307 36.5694 10.6068 36.5694 11.1102H38.9462C38.9462 10.2394 38.7481 9.42097 38.3082 8.69959L36.2789 9.93697ZM36.5694 11.1102C36.5694 11.8442 36.3076 12.3742 35.7483 12.8078L37.2047 14.6861C38.3538 13.7952 38.9462 12.5672 38.9462 11.1102H36.5694ZM35.7526 12.8045C35.165 13.2558 34.3041 13.5427 33.0506 13.5427V15.9195C34.6566 15.9195 36.0797 15.5503 37.2004 14.6894L35.7526 12.8045ZM33.0506 13.5427C32.2769 13.5427 31.5739 13.3966 30.9281 13.1135L29.9737 15.2903C30.9373 15.7127 31.9673 15.9195 33.0506 15.9195V13.5427ZM30.9351 13.1166C30.2931 12.8301 29.8515 12.4663 29.5538 12.047L27.6157 13.4229C28.197 14.2416 28.9995 14.8556 29.9667 15.2872L30.9351 13.1166ZM29.5583 12.0534C29.2708 11.6426 29.1232 11.1801 29.1232 10.6274H26.7464C26.7464 11.6468 27.0322 12.5893 27.6112 13.4165L29.5583 12.0534ZM27.9348 11.8158H29.7267V9.43898H27.9348V11.8158ZM28.5383 10.6274C28.5383 11.7795 28.9832 12.78 29.8884 13.4986L31.3662 11.637C31.0707 11.4024 30.9151 11.1093 30.9151 10.6274H28.5383ZM29.899 13.5069C30.7713 14.1834 31.861 14.4619 33.0506 14.4619V12.085C32.2223 12.085 31.6965 11.8931 31.3556 11.6287L29.899 13.5069ZM33.0506 14.4619C34.1302 14.4619 35.1477 14.245 35.9362 13.6415L34.4915 11.7541C34.2772 11.9182 33.8525 12.085 33.0506 12.085V14.4619ZM35.9362 13.6415C36.7477 13.0203 37.1543 12.1399 37.1543 11.1287H34.7775C34.7775 11.4422 34.6827 11.6078 34.4915 11.7541L35.9362 13.6415ZM37.1543 11.1287C37.1543 10.1524 36.7919 9.27181 35.9965 8.65672L34.5425 10.5369C34.6756 10.6398 34.7775 10.7805 34.7775 11.1287H37.1543ZM36.0043 8.66278C35.3463 8.14513 34.3107 7.73594 33.0745 7.37824L32.4139 9.6614C33.6163 10.0093 34.2643 10.3181 34.5348 10.5308L36.0043 8.66278ZM42.1121 2.06715H43.3006V0.878744H42.1121V2.06715ZM42.1121 4.49967H40.9237V5.68807H42.1121V4.49967ZM43.9876 4.49967H45.176V3.31126H43.9876V4.49967ZM43.9876 5.82734V7.01575H45.176V5.82734H43.9876ZM42.1121 5.82734V4.63893H40.9237V5.82734H42.1121ZM42.3628 12.9671L41.4431 13.7196L41.4487 13.7266L41.4545 13.7334L42.3628 12.9671ZM44.034 13.1527H45.2224V11.6827L43.785 11.9907L44.034 13.1527ZM44.034 14.5454L44.348 15.6916L45.2224 15.452V14.5454H44.034ZM40.3945 5.82734H41.5829V4.63893H40.3945V5.82734ZM38.5655 5.82734H37.3771V7.01575H38.5655V5.82734ZM38.5655 4.49967V3.31126H37.3771V4.49967H38.5655ZM40.3945 4.49967V5.68807H41.5829V4.49967H40.3945ZM40.3945 2.06715V0.878744H39.2061V2.06715H40.3945ZM40.9237 2.06715V4.49967H43.3006V2.06715H40.9237ZM42.1121 5.68807H43.9876V3.31126H42.1121V5.68807ZM42.7992 4.49967V5.82734H45.176V4.49967H42.7992ZM43.9876 4.63893H42.1121V7.01575H43.9876V4.63893ZM40.9237 5.82734V12.0572H43.3006V5.82734H40.9237ZM40.9237 12.0572C40.9237 12.5965 41.0316 13.2167 41.4431 13.7196L43.2826 12.2145C43.3222 12.2629 43.3266 12.2928 43.3205 12.2707C43.3137 12.2459 43.3006 12.1798 43.3006 12.0572H40.9237ZM41.4545 13.7334C41.948 14.3183 42.6582 14.4526 43.217 14.4526V12.0758C43.1644 12.0758 43.1286 12.0725 43.1069 12.0693C43.0851 12.0662 43.0818 12.0638 43.0921 12.0674C43.103 12.0712 43.129 12.0816 43.1631 12.1041C43.1981 12.127 43.236 12.159 43.2711 12.2007L41.4545 13.7334ZM43.217 14.4526C43.5398 14.4526 43.9079 14.3952 44.283 14.3148L43.785 11.9907C43.4669 12.0589 43.2904 12.0758 43.217 12.0758V14.4526ZM42.8456 13.1527V14.5454H45.2224V13.1527H42.8456ZM43.72 13.3992C43.3607 13.4977 43.0269 13.5427 42.7156 13.5427V15.9195C43.2585 15.9195 43.8037 15.8407 44.348 15.6916L43.72 13.3992ZM42.7156 13.5427C42.1981 13.5427 41.9958 13.397 41.8894 13.2704L40.0695 14.7991C40.743 15.601 41.6981 15.9195 42.7156 15.9195V13.5427ZM41.8894 13.2704C41.7406 13.0932 41.5829 12.7446 41.5829 12.0572H39.2061C39.2061 13.0781 39.4384 14.0479 40.0695 14.7991L41.8894 13.2704ZM41.5829 12.0572V5.82734H39.2061V12.0572H41.5829ZM40.3945 4.63893H38.5655V7.01575H40.3945V4.63893ZM39.7539 5.82734V4.49967H37.3771V5.82734H39.7539ZM38.5655 5.68807H40.3945V3.31126H38.5655V5.68807ZM41.5829 4.49967V2.06715H39.2061V4.49967H41.5829ZM40.3945 3.25556H42.1121V0.878744H40.3945V3.25556ZM45.9373 6.77435L44.8727 6.24622L44.8694 6.25299L45.9373 6.77435ZM47.5528 4.9546L46.9295 3.94279L46.9254 3.94531L47.5528 4.9546ZM53.2349 5.7345L52.3467 6.52403L52.3495 6.52726L53.2349 5.7345ZM53.9405 12.2707L52.8708 11.7529L52.8691 11.7565L53.9405 12.2707ZM52.3343 14.0812L51.7085 13.0709L51.7044 13.0734L52.3343 14.0812ZM46.6244 13.3106L45.7361 14.1001L45.739 14.1033L46.6244 13.3106ZM47.8592 12.3171L46.9137 13.0371L46.9179 13.0426L47.8592 12.3171ZM52.0186 12.3079L52.9673 13.0237L52.9704 13.0195L52.0186 12.3079ZM52.0001 6.75578L51.0524 7.47295L51.0597 7.48243L52.0001 6.75578ZM46.5501 9.4297C46.5501 8.60347 46.7102 7.90013 47.0053 7.29571L44.8694 6.25299C44.397 7.22073 44.1733 8.28763 44.1733 9.4297H46.5501ZM47.0019 7.30247C47.3023 6.69691 47.6966 6.2645 48.1802 5.9639L46.9254 3.94531C46.0349 4.49887 45.3522 5.27963 44.8727 6.24623L47.0019 7.30247ZM48.1762 5.96641C48.6658 5.66478 49.2355 5.50239 49.9203 5.50239V3.12557C48.835 3.12557 47.8264 3.39026 46.9295 3.9428L48.1762 5.96641ZM49.9203 5.50239C50.9792 5.50239 51.7498 5.85261 52.3467 6.52403L54.1231 4.94496C53.0364 3.72236 51.5973 3.12557 49.9203 3.12557V5.50239ZM52.3495 6.52726C52.959 7.20793 53.3184 8.16142 53.3184 9.51325H55.6953C55.6953 7.72076 55.2067 6.15509 54.1202 4.94173L52.3495 6.52726ZM53.3184 9.51325V9.63395H55.6953V9.51325H53.3184ZM53.3184 9.63395C53.3184 10.4558 53.1607 11.1541 52.8709 11.7529L55.0101 12.7886C55.4754 11.8276 55.6953 10.7681 55.6953 9.63395H53.3184ZM52.8691 11.7565C52.5914 12.335 52.2065 12.7624 51.7085 13.0709L52.9601 15.0915C53.8609 14.5334 54.5468 13.7539 55.0119 12.785L52.8691 11.7565ZM51.7044 13.0734C51.2197 13.3764 50.6441 13.5427 49.9389 13.5427V15.9195C51.0411 15.9195 52.0625 15.6525 52.9641 15.089L51.7044 13.0734ZM49.9389 13.5427C48.888 13.5427 48.1148 13.1935 47.5097 12.5178L45.739 14.1033C46.8299 15.3216 48.2664 15.9195 49.9389 15.9195V13.5427ZM47.5126 12.521C46.9062 11.8388 46.5501 10.8893 46.5501 9.55039H44.1733C44.1733 11.3311 44.659 12.8883 45.7362 14.1001L47.5126 12.521ZM46.5501 9.55039V9.4297H44.1733V9.55039H46.5501ZM45.9002 9.63395C45.9002 10.9266 46.1992 12.0988 46.9137 13.0371L48.8047 11.5972C48.4917 11.1862 48.277 10.5696 48.277 9.63395H45.9002ZM46.9179 13.0426C47.6674 14.0151 48.7113 14.5176 49.9389 14.5176V12.1407C49.4335 12.1407 49.0909 11.9685 48.8005 11.5917L46.9179 13.0426ZM49.9389 14.5176C51.1743 14.5176 52.2229 14.0102 52.9673 13.0237L51.07 11.5921C50.7869 11.9673 50.449 12.1407 49.9389 12.1407V14.5176ZM52.9704 13.0195C53.6918 12.0547 53.9776 10.8099 53.9776 9.4297H51.6008C51.6008 10.5129 51.3729 11.1869 51.0669 11.5962L52.9704 13.0195ZM53.9776 9.4297C53.9776 8.13949 53.6676 6.97024 52.9404 6.02913L51.0597 7.48243C51.3847 7.90304 51.6008 8.51639 51.6008 9.4297H53.9776ZM52.9477 6.03865C52.2016 5.05276 51.1566 4.53681 49.9203 4.53681V6.91362C50.4172 6.91362 50.7586 7.08471 51.0524 7.47292L52.9477 6.03865ZM49.9203 4.53681C48.7018 4.53681 47.6709 5.0467 46.9272 6.0118L48.8098 7.46263C49.1059 7.07839 49.4429 6.91362 49.9203 6.91362V4.53681ZM46.9272 6.0118C46.1868 6.97257 45.9002 8.2347 45.9002 9.63395H48.277C48.277 8.52022 48.5104 7.85119 48.8098 7.46263L46.9272 6.0118ZM61.5166 6.04088L61.3212 7.21312L62.705 7.44375V6.04088H61.5166ZM58.3785 7.41498L57.2825 6.95539L57.19 7.17588V7.41498H58.3785ZM58.3785 14.5454V15.7338H59.5669V14.5454H58.3785ZM56.6608 14.5454H55.4724V15.7338H56.6608V14.5454ZM56.6608 4.49967V3.31126H55.4724V4.49967H56.6608ZM58.332 4.49967L59.5201 4.47115L59.4923 3.31126H58.332V4.49967ZM58.3599 5.66022L57.1718 5.68873L57.2666 9.6379L59.3665 6.29195L58.3599 5.66022ZM61.5166 4.44396H62.705V3.70949L62.0481 3.38102L61.5166 4.44396ZM61.712 4.86865C61.3786 4.81309 61.0309 4.78749 60.6717 4.78749V7.1643C60.9191 7.1643 61.1346 7.18202 61.3212 7.21312L61.712 4.86865ZM60.6717 4.78749C59.9402 4.78749 59.2352 4.94411 58.6218 5.32904C58.0017 5.71819 57.5634 6.28553 57.2825 6.95539L59.4744 7.87456C59.5958 7.58503 59.7409 7.43283 59.8852 7.34228C60.0362 7.24751 60.2767 7.1643 60.6717 7.1643V4.78749ZM57.19 7.41498V14.5454H59.5669V7.41498H57.19ZM58.3785 13.357H56.6608V15.7338H58.3785V13.357ZM57.8492 14.5454V4.49967H55.4724V14.5454H57.8492ZM56.6608 5.68807H58.332V3.31126H56.6608V5.68807ZM57.144 4.52818L57.1718 5.68873L59.5479 5.63171L59.5201 4.47115L57.144 4.52818ZM59.3665 6.29195C59.719 5.73028 60.1429 5.50239 60.7553 5.50239V3.12557C59.3003 3.12557 58.1273 3.79518 57.3533 5.0285L59.3665 6.29195ZM60.7553 5.50239C60.874 5.50239 60.9516 5.5103 60.9963 5.51793C61.0433 5.52596 61.0309 5.52979 60.9851 5.5069L62.0481 3.38102C61.6306 3.17228 61.1584 3.12557 60.7553 3.12557V5.50239ZM60.3282 4.44396V6.04088H62.705V4.44396H60.3282ZM66.558 12.0293L65.4305 12.4047L66.597 15.9088L67.6929 12.382L66.558 12.0293ZM68.8977 4.49967V3.31126H68.0225L67.7628 4.14703L68.8977 4.49967ZM70.736 4.49967L71.8583 4.89054L72.4083 3.31126H70.736V4.49967ZM66.6973 16.0959L67.8104 16.5123L67.8151 16.4996L67.8196 16.4868L66.6973 16.0959ZM63.717 18.6027L63.6155 19.7868L63.6662 19.7911H63.717V18.6027ZM63.392 18.5748L63.172 19.7427L63.2309 19.7538L63.2906 19.7589L63.392 18.5748ZM62.7514 18.4542H61.563V19.4396L62.5314 19.622L62.7514 18.4542ZM62.7514 17.0615L62.8462 15.8769L61.563 15.7742V17.0615H62.7514ZM63.2156 17.0986L63.1209 18.2832L63.1682 18.287H63.2156V17.0986ZM64.5712 16.7458L63.8787 15.78L63.87 15.7863L64.5712 16.7458ZM65.3789 15.4553L64.2653 15.0402L64.2587 15.0581L64.2526 15.0761L65.3789 15.4553ZM65.7596 14.434L66.8731 14.8491L67.0253 14.4407L66.8775 14.0307L65.7596 14.434ZM62.1758 4.49967V3.31126H60.4837L61.0579 4.90294L62.1758 4.49967ZM64.0512 4.49967L65.1788 4.12428L64.9081 3.31126H64.0512V4.49967ZM67.6929 12.382L70.0326 4.85231L67.7628 4.14703L65.4231 11.6767L67.6929 12.382ZM68.8977 5.68807H70.736V3.31126H68.8977V5.68807ZM69.6137 4.1088L65.575 15.705L67.8196 16.4868L71.8583 4.89054L69.6137 4.1088ZM65.5842 15.6795C65.3177 16.392 65.0108 16.8206 64.7184 17.0665C64.447 17.2948 64.1329 17.4143 63.717 17.4143V19.7911C64.6629 19.7911 65.5263 19.4928 66.2483 18.8855C66.9494 18.2958 67.4518 17.471 67.8104 16.5123L65.5842 15.6795ZM63.8185 17.4186L63.4935 17.3908L63.2906 19.7589L63.6155 19.7868L63.8185 17.4186ZM63.6121 17.407L62.9714 17.2863L62.5314 19.622L63.172 19.7427L63.6121 17.407ZM63.9398 18.4542V17.0615H61.563V18.4542H63.9398ZM62.6566 18.2461L63.1209 18.2832L63.3104 15.914L62.8462 15.8769L62.6566 18.2461ZM63.2156 18.287C63.9386 18.287 64.6727 18.1436 65.2723 17.7053L63.87 15.7863C63.8259 15.8185 63.6563 15.9102 63.2156 15.9102V18.287ZM65.2636 17.7116C65.8864 17.2651 66.2613 16.559 66.5052 15.8344L64.2526 15.0761C64.0756 15.6019 63.912 15.7561 63.8787 15.78L65.2636 17.7116ZM66.4925 15.8703L66.8731 14.8491L64.646 14.0189L64.2653 15.0402L66.4925 15.8703ZM66.8775 14.0307L63.2937 4.09639L61.0579 4.90294L64.6417 14.8373L66.8775 14.0307ZM62.1758 5.68807H64.0512V3.31126H62.1758V5.68807ZM62.9237 4.87506L65.4305 12.4047L67.6856 11.6539L65.1788 4.12428L62.9237 4.87506ZM10.8422 29.7743L9.77759 29.2462L9.77428 29.253L10.8422 29.7743ZM12.4577 27.9546L11.8344 26.9428L11.8303 26.9453L12.4577 27.9546ZM18.1398 28.7345L17.2515 29.524L17.2544 29.5273L18.1398 28.7345ZM18.8454 35.2707L17.7757 34.7529L17.774 34.7565L18.8454 35.2707ZM17.2392 37.0812L16.6134 36.0709L16.6093 36.0734L17.2392 37.0812ZM11.5293 36.3106L10.641 37.1001L10.6439 37.1033L11.5293 36.3106ZM12.7641 35.3172L11.8186 36.0371L11.8228 36.0426L12.7641 35.3172ZM16.9235 35.3079L17.8722 36.0237L17.8753 36.0195L16.9235 35.3079ZM16.9049 29.7558L15.9573 30.473L15.9646 30.4824L16.9049 29.7558ZM11.455 32.4297C11.455 31.6035 11.6151 30.9001 11.9102 30.2957L9.77428 29.253C9.30184 30.2207 9.07818 31.2876 9.07818 32.4297H11.455ZM11.9068 30.3025C12.2072 29.6969 12.6015 29.2645 13.0851 28.9639L11.8303 26.9453C10.9398 27.4989 10.2571 28.2796 9.77761 29.2462L11.9068 30.3025ZM13.0811 28.9664C13.5707 28.6648 14.1404 28.5024 14.8252 28.5024V26.1256C13.7399 26.1256 12.7312 26.3903 11.8344 26.9428L13.0811 28.9664ZM14.8252 28.5024C15.8841 28.5024 16.6547 28.8526 17.2516 29.524L19.028 27.945C17.9412 26.7224 16.5022 26.1256 14.8252 26.1256V28.5024ZM17.2544 29.5273C17.8639 30.2079 18.2233 31.1614 18.2233 32.5133H20.6001C20.6001 30.7208 20.1116 29.1551 19.0251 27.9417L17.2544 29.5273ZM18.2233 32.5133V32.634H20.6001V32.5133H18.2233ZM18.2233 32.634C18.2233 33.4558 18.0656 34.1541 17.7757 34.7529L19.915 35.7886C20.3803 34.8276 20.6001 33.7681 20.6001 32.634H18.2233ZM17.774 34.7565C17.4963 35.335 17.1114 35.7624 16.6134 36.0709L17.865 38.0915C18.7658 37.5334 19.4517 36.7539 19.9168 35.785L17.774 34.7565ZM16.6093 36.0734C16.1245 36.3764 15.549 36.5427 14.8438 36.5427V38.9195C15.946 38.9195 16.9674 38.6525 17.869 38.089L16.6093 36.0734ZM14.8438 36.5427C13.7929 36.5427 13.0197 36.1935 12.4146 35.5178L10.6439 37.1033C11.7348 38.3216 13.1713 38.9195 14.8438 38.9195V36.5427ZM12.4175 35.521C11.8111 34.8388 11.455 33.8893 11.455 32.5504H9.07818C9.07818 34.3311 9.56388 35.8883 10.641 37.1001L12.4175 35.521ZM11.455 32.5504V32.4297H9.07818V32.5504H11.455ZM10.8051 32.634C10.8051 33.9266 11.1041 35.0988 11.8186 36.0371L13.7096 34.5972C13.3966 34.1862 13.1819 33.5696 13.1819 32.634H10.8051ZM11.8228 36.0426C12.5722 37.0151 13.6162 37.5176 14.8438 37.5176V35.1407C14.3384 35.1407 13.9958 34.9686 13.7054 34.5917L11.8228 36.0426ZM14.8438 37.5176C16.0792 37.5176 17.1278 37.0102 17.8722 36.0237L15.9749 34.5921C15.6918 34.9673 15.3539 35.1407 14.8438 35.1407V37.5176ZM17.8753 36.0195C18.5967 35.0547 18.8825 33.8099 18.8825 32.4297H16.5057C16.5057 33.5129 16.2778 34.1869 15.9718 34.5962L17.8753 36.0195ZM18.8825 32.4297C18.8825 31.1395 18.5725 29.9702 17.8453 29.0291L15.9646 30.4824C16.2896 30.903 16.5057 31.5164 16.5057 32.4297H18.8825ZM17.8526 29.0386C17.1065 28.0528 16.0615 27.5368 14.8252 27.5368V29.9136C15.322 29.9136 15.6635 30.0847 15.9573 30.4729L17.8526 29.0386ZM14.8252 27.5368C13.6067 27.5368 12.5758 28.0467 11.8321 29.0118L13.7147 30.4626C14.0108 30.0784 14.3478 29.9136 14.8252 29.9136V27.5368ZM11.8321 29.0118C11.0917 29.9726 10.8051 31.2347 10.8051 32.634H13.1819C13.1819 31.5202 13.4153 30.8512 13.7147 30.4626L11.8321 29.0118ZM23.1905 27.4997L24.3778 27.4473L24.3276 26.3113H23.1905V27.4997ZM23.2462 28.7623L22.059 28.8147L22.199 31.9896L24.1765 29.5018L23.2462 28.7623ZM29.4668 30.9071H30.6552L30.6551 30.8978L29.4668 30.9071ZM29.4668 37.5454V38.7338H30.6552V37.5454H29.4668ZM27.7491 37.5454H26.5607V38.7338H27.7491V37.5454ZM27.7491 30.8978H28.9376L28.9375 30.8876L27.7491 30.8978ZM27.2478 29.2916L26.3769 30.1003L26.3847 30.1085L27.2478 29.2916ZM23.2833 30.3871L22.215 29.8666L22.0949 30.113V30.3871H23.2833ZM23.2833 37.5454V38.7338H24.4718V37.5454H23.2833ZM21.5657 37.5454H20.3773V38.7338H21.5657V37.5454ZM21.5657 27.4997V26.3113H20.3773V27.4997H21.5657ZM22.0032 27.552L22.059 28.8147L24.4335 28.71L24.3778 27.4473L22.0032 27.552ZM24.1765 29.5018C24.7176 28.8211 25.3772 28.5024 26.2544 28.5024V26.1256C24.6556 26.1256 23.3098 26.7725 22.3159 28.0229L24.1765 29.5018ZM26.2544 28.5024C27.0924 28.5024 27.5204 28.7321 27.7638 29.0043C28.031 29.3032 28.2703 29.8696 28.2784 30.9163L30.6551 30.8978C30.6447 29.5491 30.3393 28.319 29.5357 27.4202C28.7082 26.4947 27.5394 26.1256 26.2544 26.1256V28.5024ZM28.2784 30.9071V37.5454H30.6552V30.9071H28.2784ZM29.4668 36.357H27.7491V38.7338H29.4668V36.357ZM28.9376 37.5454V30.8978H26.5607V37.5454H28.9376ZM28.9375 30.8876C28.93 30.0143 28.7301 29.1288 28.1109 28.4747L26.3847 30.1085C26.4216 30.1475 26.5559 30.3328 26.5608 30.9079L28.9375 30.8876ZM28.1186 28.4829C27.4863 27.8019 26.6005 27.5832 25.7344 27.5832V29.96C26.2424 29.96 26.3656 30.088 26.3769 30.1002L28.1186 28.4829ZM25.7344 27.5832C24.9529 27.5832 24.2201 27.7961 23.5822 28.2464L24.9528 30.1882C25.1567 30.0443 25.4018 29.96 25.7344 29.96V27.5832ZM23.5822 28.2464C22.9906 28.6639 22.534 29.2118 22.215 29.8666L24.3517 30.9076C24.5031 30.5969 24.7026 30.3648 24.9528 30.1882L23.5822 28.2464ZM22.0949 30.3871V37.5454H24.4718V30.3871H22.0949ZM23.2833 36.357H21.5657V38.7338H23.2833V36.357ZM22.7541 37.5454V27.4997H20.3773V37.5454H22.7541ZM21.5657 28.6881H23.1905V26.3113H21.5657V28.6881ZM33.9233 37.5454V38.7338H35.1117V37.5454H33.9233ZM32.2057 37.5454H31.0173V38.7338H32.2057V37.5454ZM32.2057 23.2845V22.0961H31.0173V23.2845H32.2057ZM33.9233 23.2845H35.1117V22.0961H33.9233V23.2845ZM33.9233 36.357H32.2057V38.7338H33.9233V36.357ZM33.3941 37.5454V23.2845H31.0173V37.5454H33.3941ZM32.2057 24.4729H33.9233V22.0961H32.2057V24.4729ZM32.7349 23.2845V37.5454H35.1117V23.2845H32.7349ZM38.5469 37.5454V38.7338H39.7353V37.5454H38.5469ZM36.8293 37.5454H35.6409V38.7338H36.8293V37.5454ZM36.8293 27.4997V26.3113H35.6409V27.4997H36.8293ZM38.5469 27.4997H39.7353V26.3113H38.5469V27.4997ZM36.9407 24.1294L36.0588 23.3329L36.0516 23.3408L36.0446 23.3489L36.9407 24.1294ZM36.9407 25.5314L36.0574 26.3264L36.0646 26.3344L36.0719 26.3422L36.9407 25.5314ZM38.5469 36.357H36.8293V38.7338H38.5469V36.357ZM38.0177 37.5454V27.4997H35.6409V37.5454H38.0177ZM36.8293 28.6881H38.5469V26.3113H36.8293V28.6881ZM37.3585 27.4997V37.5454H39.7353V27.4997H37.3585ZM37.8785 24.835C37.8785 24.8157 37.8811 24.8235 37.8726 24.8476C37.8685 24.859 37.8629 24.8711 37.856 24.883C37.849 24.8949 37.8421 24.9039 37.8369 24.9099L36.0446 23.3489C35.6706 23.7782 35.5016 24.2988 35.5016 24.835H37.8785ZM37.8226 24.926C37.8016 24.9493 37.7769 24.9709 37.7499 24.989C37.7232 25.007 37.6992 25.0184 37.6813 25.0252C37.6468 25.0382 37.6463 25.03 37.702 25.03V22.6532C37.1361 22.6532 36.5191 22.8233 36.0588 23.3329L37.8226 24.926ZM37.702 25.03C37.7578 25.03 37.7573 25.0382 37.7228 25.0252C37.7049 25.0184 37.6809 25.007 37.6542 24.989C37.6272 24.9709 37.6025 24.9493 37.5815 24.926L39.3453 23.3329C38.885 22.8233 38.268 22.6532 37.702 22.6532V25.03ZM37.5815 24.926C37.5766 24.9206 37.5695 24.9117 37.562 24.8994C37.5544 24.8869 37.548 24.8737 37.5432 24.8606C37.533 24.8328 37.5349 24.8205 37.5349 24.835H39.9117C39.9117 24.2869 39.7319 23.7608 39.3453 23.3329L37.5815 24.926ZM37.5349 24.835C37.5349 24.8499 37.5329 24.8347 37.545 24.8024C37.5578 24.7681 37.5773 24.7391 37.5946 24.7205L39.3322 26.3422C39.7315 25.9144 39.9117 25.383 39.9117 24.835H37.5349ZM37.5946 24.7205C37.617 24.6965 37.6424 24.6752 37.6691 24.6578C37.6956 24.6406 37.7186 24.6301 37.7347 24.6242C37.7655 24.613 37.7617 24.6215 37.702 24.6215V26.9983C38.2565 26.9983 38.8691 26.8384 39.3322 26.3422L37.5946 24.7205ZM37.702 24.6215C37.6424 24.6215 37.6386 24.613 37.6694 24.6242C37.6855 24.6301 37.7085 24.6406 37.735 24.6578C37.7617 24.6752 37.7871 24.6965 37.8095 24.7205L36.0719 26.3422C36.535 26.8384 37.1476 26.9983 37.702 26.9983V24.6215ZM37.8241 24.7364C37.8421 24.7564 37.8599 24.7849 37.8709 24.8155C37.8812 24.8441 37.8785 24.8546 37.8785 24.835H35.5016C35.5016 25.3708 35.6708 25.8969 36.0574 26.3264L37.8241 24.7364ZM42.9292 27.4997L44.1164 27.4473L44.0663 26.3113H42.9292V27.4997ZM42.9849 28.7623L41.7976 28.8147L41.9377 31.9896L43.9152 29.5018L42.9849 28.7623ZM49.2054 30.9071H50.3939L50.3938 30.8978L49.2054 30.9071ZM49.2054 37.5454V38.7338H50.3939V37.5454H49.2054ZM47.4878 37.5454H46.2994V38.7338H47.4878V37.5454ZM47.4878 30.8978H48.6763L48.6762 30.8876L47.4878 30.8978ZM46.9865 29.2916L46.1156 30.1003L46.1233 30.1085L46.9865 29.2916ZM43.022 30.3871L41.9537 29.8666L41.8336 30.113V30.3871H43.022ZM43.022 37.5454V38.7338H44.2104V37.5454H43.022ZM41.3044 37.5454H40.116V38.7338H41.3044V37.5454ZM41.3044 27.4997V26.3113H40.116V27.4997H41.3044ZM41.7419 27.552L41.7976 28.8147L44.1721 28.71L44.1164 27.4473L41.7419 27.552ZM43.9152 29.5018C44.4563 28.8211 45.1159 28.5024 45.993 28.5024V26.1256C44.3943 26.1256 43.0485 26.7725 42.0546 28.0229L43.9152 29.5018ZM45.993 28.5024C46.831 28.5024 47.2591 28.7321 47.5025 29.0043C47.7697 29.3032 48.009 29.8696 48.0171 30.9163L50.3938 30.8978C50.3834 29.5491 50.0779 28.319 49.2744 27.4202C48.4469 26.4947 47.2781 26.1256 45.993 26.1256V28.5024ZM48.017 30.9071V37.5454H50.3939V30.9071H48.017ZM49.2054 36.357H47.4878V38.7338H49.2054V36.357ZM48.6762 37.5454V30.8978H46.2994V37.5454H48.6762ZM48.6762 30.8876C48.6687 30.0143 48.4687 29.1288 47.8496 28.4747L46.1233 30.1085C46.1603 30.1475 46.2946 30.3328 46.2995 30.9079L48.6762 30.8876ZM47.8573 28.4829C47.225 27.8019 46.3392 27.5832 45.4731 27.5832V29.96C45.9811 29.96 46.1043 30.088 46.1156 30.1002L47.8573 28.4829ZM45.4731 27.5832C44.6916 27.5832 43.9587 27.7961 43.3208 28.2464L44.6915 30.1882C44.8954 30.0443 45.1405 29.96 45.4731 29.96V27.5832ZM43.3208 28.2464C42.7293 28.6639 42.2727 29.2118 41.9537 29.8666L44.0904 30.9076C44.2418 30.5969 44.4412 30.3648 44.6915 30.1882L43.3208 28.2464ZM41.8336 30.3871V37.5454H44.2104V30.3871H41.8336ZM43.022 36.357H41.3044V38.7338H43.022V36.357ZM42.4928 37.5454V27.4997H40.116V37.5454H42.4928ZM41.3044 28.6881H42.9292V26.3113H41.3044V28.6881ZM52.6407 36.3941L51.7798 37.2134L51.7827 37.2164L52.6407 36.3941ZM51.9258 29.8208L50.8578 29.2994L50.8561 29.3029L51.9258 29.8208ZM53.5227 27.9825L54.1672 28.9809L54.1694 28.9795L53.5227 27.9825ZM58.7962 28.6045L57.8871 29.3698L58.7962 28.6045ZM59.8825 33.0146V34.203H61.0709V33.0146H59.8825ZM53.077 33.0146V31.8262H51.8586L51.889 33.0443L53.077 33.0146ZM53.9405 35.4193L53.0567 36.2138L53.0652 36.2231L53.9405 35.4193ZM58.7034 34.9736L59.4336 34.036L58.4924 33.3031L57.763 34.247L58.7034 34.9736ZM59.7525 35.7907L60.7486 36.4388L61.3441 35.5238L60.4827 34.853L59.7525 35.7907ZM54.0055 29.4865L54.8722 30.2997L54.8771 30.2944L54.0055 29.4865ZM53.1328 31.6034L51.9532 31.4589L51.79 32.7918H53.1328V31.6034ZM58.1649 31.6034V32.7918H59.3533V31.6034H58.1649ZM58.1649 31.4734H59.3533V31.4397L59.3514 31.4061L58.1649 31.4734ZM57.4593 29.4494L56.5635 30.2304L56.5685 30.2361L57.4593 29.4494ZM55.9645 36.5427C54.8899 36.5427 54.1044 36.2039 53.4987 35.5719L51.7827 37.2164C52.8853 38.367 54.3157 38.9195 55.9645 38.9195V36.5427ZM53.5015 35.5748C52.9 34.9428 52.5478 34.0615 52.5478 32.8011H50.171C50.171 34.5364 50.673 36.0505 51.7798 37.2134L53.5015 35.5748ZM52.5478 32.8011V32.4854H50.171V32.8011H52.5478ZM52.5478 32.4854C52.5478 31.6413 52.707 30.9345 52.9954 30.3386L50.8561 29.3029C50.3895 30.2669 50.171 31.3364 50.171 32.4854H52.5478ZM52.9937 30.3421C53.2903 29.7347 53.6828 29.2936 54.1672 28.9809L52.8782 26.984C52.0009 27.5502 51.3288 28.3347 50.8578 29.2994L52.9937 30.3421ZM54.1694 28.9795C54.6691 28.6554 55.1882 28.5024 55.751 28.5024V26.1256C54.7168 26.1256 53.7504 26.4183 52.876 26.9854L54.1694 28.9795ZM55.751 28.5024C56.7693 28.5024 57.4263 28.8224 57.8871 29.3698L59.7054 27.8392C58.7178 26.6659 57.3447 26.1256 55.751 26.1256V28.5024ZM57.8871 29.3698C58.3676 29.9407 58.6941 30.8594 58.6941 32.2997H61.0709C61.0709 30.5338 60.6733 28.989 59.7054 27.8392L57.8871 29.3698ZM58.6941 32.2997V33.0146H61.0709V32.2997H58.6941ZM59.8825 31.8262H53.077V34.203H59.8825V31.8262ZM51.889 33.0443C51.9194 34.2579 52.2801 35.3499 53.0567 36.2138L54.8243 34.6248C54.4992 34.2632 54.2843 33.7521 54.2651 32.9849L51.889 33.0443ZM53.0652 36.2231C53.8566 37.0849 54.8844 37.5176 56.0573 37.5176V35.1407C55.5219 35.1407 55.1385 34.9668 54.8158 34.6154L53.0652 36.2231ZM56.0573 37.5176C56.8249 37.5176 57.5582 37.3603 58.2011 36.9821L56.996 34.9334C56.7971 35.0504 56.5029 35.1407 56.0573 35.1407V37.5176ZM58.2011 36.9821C58.7599 36.6534 59.2409 36.2217 59.6438 35.7003L57.763 34.247C57.5346 34.5426 57.279 34.767 56.996 34.9334L58.2011 36.9821ZM57.9732 35.9113L59.0224 36.7283L60.4827 34.853L59.4336 34.036L57.9732 35.9113ZM58.7565 35.1425C58.1566 36.0643 57.2894 36.5427 55.9645 36.5427V38.9195C58.0067 38.9195 59.6649 38.1042 60.7486 36.4388L58.7565 35.1425ZM55.751 27.5368C54.7275 27.5368 53.8296 27.928 53.1339 28.6787L54.8771 30.2944C55.1222 30.03 55.3879 29.9136 55.751 29.9136V27.5368ZM53.1388 28.6734C52.4464 29.4114 52.0851 30.3813 51.9532 31.4589L54.3124 31.7478C54.4032 31.0057 54.6238 30.5644 54.8721 30.2997L53.1388 28.6734ZM53.1328 32.7918H58.1649V30.415H53.1328V32.7918ZM59.3533 31.6034V31.4734H56.9765V31.6034H59.3533ZM59.3514 31.4061C59.2924 30.3657 59.0032 29.4023 58.3501 28.6627L56.5685 30.2361C56.7572 30.4497 56.9384 30.8356 56.9784 31.5407L59.3514 31.4061ZM58.3551 28.6685C57.6797 27.8937 56.766 27.5368 55.751 27.5368V29.9136C56.172 29.9136 56.3971 30.0395 56.5635 30.2303L58.3551 28.6685Z" fill="white"/>
</svg>
