<svg width="48" height="48" viewBox="0 0 48 48" fill="none" xmlns="http://www.w3.org/2000/svg">
<g filter="url(#filter0_d_59_3)">
<path fill-rule="evenodd" clip-rule="evenodd" d="M35.4774 19.9999C35.4774 26.3438 30.3443 31.4769 24.0004 31.4769C17.6566 31.4769 12.5234 26.3438 12.5234 19.9999C12.5234 13.6561 17.6566 8.52295 24.0004 8.52295C30.3443 8.52295 35.4774 13.6561 35.4774 19.9999ZM24.0004 10.3147C29.3757 10.3147 33.7341 14.6246 33.7341 19.9999C33.7341 25.3752 29.3757 29.7336 24.0004 29.7336C18.6251 29.7336 14.3152 25.3752 14.3152 19.9999C14.3152 14.6246 18.6251 10.3147 24.0004 10.3147Z" fill="#FE9013"/>
<path fill-rule="evenodd" clip-rule="evenodd" d="M24 0C35.0412 0 44 8.95884 44 20C44 31.0412 35.0412 40 24 40C12.9588 40 4 31.0412 4 20C4 8.95884 12.9588 0 24 0ZM24 1.79177C34.0726 1.79177 42.2567 9.92736 42.2567 20C42.2567 30.0726 34.0726 38.2567 24 38.2567C13.9274 38.2567 5.79177 30.0726 5.79177 20C5.79177 9.92736 13.9274 1.79177 24 1.79177Z" fill="#FE9013"/>
</g>
<defs>
<filter id="filter0_d_59_3" x="0" y="0" width="48" height="48" filterUnits="userSpaceOnUse" color-interpolation-filters="sRGB">
<feFlood flood-opacity="0" result="BackgroundImageFix"/>
<feColorMatrix in="SourceAlpha" type="matrix" values="0 0 0 0 0 0 0 0 0 0 0 0 0 0 0 0 0 0 127 0" result="hardAlpha"/>
<feOffset dy="4"/>
<feGaussianBlur stdDeviation="2"/>
<feComposite in2="hardAlpha" operator="out"/>
<feColorMatrix type="matrix" values="0 0 0 0 0 0 0 0 0 0 0 0 0 0 0 0 0 0 0.25 0"/>
<feBlend mode="normal" in2="BackgroundImageFix" result="effect1_dropShadow_59_3"/>
<feBlend mode="normal" in="SourceGraphic" in2="effect1_dropShadow_59_3" result="shape"/>
</filter>
</defs>
</svg>
